<svg xmlns="http://www.w3.org/2000/svg" width="50" height="50" viewBox="0 0 50 50">
  <path id="Path_7457" data-name="Path 7457" d="M41.909,1H10.091a2.273,2.273,0,0,0-1.477.568,9.09,9.09,0,0,1,6.023,7.613,3.977,3.977,0,0,1,0,.909V48.724a2.269,2.269,0,0,0,3.75,1.727l6.477-5.545,6.477,5.545a2.273,2.273,0,0,0,2.955,0l6.477-5.545,6.477,5.545A2.273,2.273,0,0,0,48.727,51a2.409,2.409,0,0,0,.955-.2A2.273,2.273,0,0,0,51,48.724V10.09A9.091,9.091,0,0,0,41.909,1ZM39.636,32.816H26a2.273,2.273,0,1,1,0-4.545H39.636a2.273,2.273,0,1,1,0,4.545Zm0-9.09H26a2.273,2.273,0,1,1,0-4.545H39.636a2.273,2.273,0,1,1,0,4.545Zm0-9.09H26a2.273,2.273,0,1,1,0-4.545H39.636a2.273,2.273,0,1,1,0,4.545ZM10.091,10.09v18.18H3.273A2.273,2.273,0,0,1,1,26V9.181a4.568,4.568,0,0,1,9.091.909Z" transform="translate(-1 -1)" fill="#fff"/>
</svg>
