<svg xmlns="http://www.w3.org/2000/svg" width="50" height="50" viewBox="0 0 50 50">
  <g id="_1" data-name="1" transform="translate(-4 -4)">
    <path id="Path_7449" data-name="Path 7449" d="M37.818,41.973a3.524,3.524,0,0,0-1.458-1.08L28.5,37.763a2.709,2.709,0,0,0-1.006-.193H16.864l-.07,0a2.69,2.69,0,0,0-2.087-.981H12.834a2.611,2.611,0,0,0-.7-1.189,2.7,2.7,0,0,0-1.892-.769H6.677a2.7,2.7,0,0,0-1.892.769A2.6,2.6,0,0,0,4,37.259V51.374a2.6,2.6,0,0,0,.784,1.856A2.7,2.7,0,0,0,6.677,54h3.569a2.7,2.7,0,0,0,1.892-.769,2.608,2.608,0,0,0,.7-1.188h1.873a2.691,2.691,0,0,0,2.087-.982l.033,0,23.162.946a2.7,2.7,0,0,0,2-.767L52.756,40.685a4.114,4.114,0,0,0-.35-6.2l0,0a4.226,4.226,0,0,0-5.226.021Zm-24.9,8.32V38.342h1.784a.884.884,0,0,1,.892.875v10.2a.884.884,0,0,1-.892.875ZM36.78,44.1h1.784v.922a3.442,3.442,0,0,1-1.312,2.7,3.587,3.587,0,0,1-2.962.694L27.509,46.99a.876.876,0,0,1-.685-1.039.894.894,0,0,1,1.059-.673L34.665,46.7a1.775,1.775,0,0,0,1.466-.343,1.7,1.7,0,0,0,.65-1.335ZM23.644,11.643h-.505a.875.875,0,1,0,0,1.75h.87a12.014,12.014,0,0,0-7.271,10.978,12.247,12.247,0,0,0,24.49,0,12.014,12.014,0,0,0-7.271-10.978h.87a.875.875,0,1,0,0-1.75h-.505l3.25-6.377a.862.862,0,0,0-.135-.977.9.9,0,0,0-.976-.234L28.983,6.807,21.5,4.056a.9.9,0,0,0-.976.234.862.862,0,0,0-.135.977Z" transform="translate(0)" fill="#fff" fill-rule="evenodd"/>
  </g>
</svg>
