<svg xmlns="http://www.w3.org/2000/svg" width="50" height="50" viewBox="0 0 50 50">
  <path id="Path_7450" data-name="Path 7450" d="M39.656,45.369H35.48v2.947l-1.98-.807-1.89.807V45.369H27.344a1.189,1.189,0,0,0-1.186,1.186v10.76A1.189,1.189,0,0,0,27.344,58.5H39.656a1.189,1.189,0,0,0,1.186-1.186V46.554a1.189,1.189,0,0,0-1.186-1.186ZM38.578,56.11a.211.211,0,0,1-.21.21H35.506a.211.211,0,0,1-.21-.21V54.46a.211.211,0,0,1,.21-.21h2.862a.211.211,0,0,1,.21.21ZM57.314,45.369H53.138v2.947l-1.98-.807-1.89.807V45.369H45a1.189,1.189,0,0,0-1.186,1.186v10.76A1.189,1.189,0,0,0,45,58.5H57.314A1.189,1.189,0,0,0,58.5,57.314V46.554a1.189,1.189,0,0,0-1.186-1.186ZM56.236,56.11a.211.211,0,0,1-.21.21H53.165a.211.211,0,0,1-.21-.21V54.46a.211.211,0,0,1,.21-.21h2.862a.211.211,0,0,1,.21.21ZM31.217,18.765a2.159,2.159,0,0,1,1.525-2.059v-.281a.758.758,0,0,1,1.515,0v.326a2.159,2.159,0,0,1,1.4,2.015.758.758,0,1,1-1.515,0,.642.642,0,0,0-.638-.638h-.13a.638.638,0,1,0,0,1.276h.26a2.153,2.153,0,0,1,.627,4.213V23.9a.758.758,0,0,1-1.515,0v-.326a2.159,2.159,0,0,1-1.4-2.015.758.758,0,1,1,1.515,0,.642.642,0,0,0,.638.638h.13a.638.638,0,1,0,0-1.276h-.26A2.158,2.158,0,0,1,31.217,18.765Zm-8.664,3.488h1.3A1.9,1.9,0,0,1,25.2,25.5l-.919.919a.716.716,0,0,0,0,1.01l1.949,1.949a.716.716,0,0,0,1.01,0l.919-.919a1.9,1.9,0,0,1,3.25,1.346v1.3a.716.716,0,0,0,.714.714h2.756a.716.716,0,0,0,.714-.714v-1.3a1.9,1.9,0,0,1,3.25-1.346l.919.919a.716.716,0,0,0,1.01,0l1.949-1.949a.716.716,0,0,0,0-1.01L41.8,25.5a1.9,1.9,0,0,1,1.345-3.25h1.3a.716.716,0,0,0,.714-.714V18.783a.716.716,0,0,0-.714-.714h-1.3a1.9,1.9,0,0,1-1.346-3.25l.919-.919a.716.716,0,0,0,0-1.01l-1.948-1.949a.716.716,0,0,0-1.01,0l-.919.919a1.9,1.9,0,0,1-3.25-1.346v-1.3a.716.716,0,0,0-.714-.714H32.122a.716.716,0,0,0-.714.714v1.3a1.9,1.9,0,0,1-3.25,1.346l-.919-.919a.716.716,0,0,0-1.01,0L24.28,12.89a.716.716,0,0,0,0,1.01l.919.919a1.9,1.9,0,0,1-1.346,3.25h-1.3a.716.716,0,0,0-.714.714v2.756a.716.716,0,0,0,.714.714ZM33.5,14.4a5.758,5.758,0,1,1-5.758,5.758A5.758,5.758,0,0,1,33.5,14.4ZM22,45.369H17.777v2.947l-1.98-.807-1.89.807V45.369H9.686A1.189,1.189,0,0,0,8.5,46.554v10.76A1.189,1.189,0,0,0,9.686,58.5H22a1.189,1.189,0,0,0,1.186-1.186V46.554A1.189,1.189,0,0,0,22,45.369ZM20.92,56.11a.211.211,0,0,1-.21.21H17.848a.211.211,0,0,1-.21-.21V54.46a.211.211,0,0,1,.21-.21h2.862a.211.211,0,0,1,.21.21ZM16.6,43.854H15.084V38.6a.758.758,0,0,1,.758-.758h16.9v-4.5h1.515v4.5h16.9a.758.758,0,0,1,.758.758v5.258H50.4v-4.5H34.258v4.5H32.742v-4.5H16.6Z" transform="translate(-8.5 -8.5)" fill="#fff"/>
</svg>
