<svg id="Group_5318" data-name="Group 5318" xmlns="http://www.w3.org/2000/svg" width="50.469" height="50.469" viewBox="0 0 50.469 50.469">
  <path id="Path_7455" data-name="Path 7455" d="M199.734.032c-.052,0-.1-.032-.151-.032H176.976a6.316,6.316,0,0,0-6.309,6.309v2.1a2.1,2.1,0,1,0,4.206,0v-2.1a2.106,2.106,0,0,1,2.1-2.1h9.8l-.641.214a4.227,4.227,0,0,0-2.847,3.991V39.955h-6.309a2.106,2.106,0,0,1-2.1-2.1V33.646a2.1,2.1,0,1,0-4.206,0v4.206a6.316,6.316,0,0,0,6.309,6.309h6.309v2.1a4.21,4.21,0,0,0,4.206,4.206,4.412,4.412,0,0,0,1.34-.208l12.634-4.212a4.226,4.226,0,0,0,2.849-3.991V4.206a4.214,4.214,0,0,0-4.58-4.174Zm0,0" transform="translate(-153.845)" fill="#fff"/>
  <path id="Path_7456" data-name="Path 7456" d="M22.515,115.691,14.1,107.279a2.1,2.1,0,0,0-3.589,1.487v6.309H2.1a2.1,2.1,0,0,0,0,4.206h8.412v6.309a2.1,2.1,0,0,0,3.589,1.487l8.411-8.412A2.1,2.1,0,0,0,22.515,115.691Zm0,0" transform="translate(0 -96.149)" fill="#fff"/>
</svg>
