<svg xmlns="http://www.w3.org/2000/svg" width="50" height="62.695" viewBox="0 0 50 62.695">
  <path id="Path_7458" data-name="Path 7458" d="M113.069,79.011V75.7a.637.637,0,0,0-.634-.634H95.351a.13.13,0,0,0-.13.13v3.811a.128.128,0,0,0,.091.124,3.536,3.536,0,1,1-2.133,0,.128.128,0,0,0,.091-.124V75.2a.13.13,0,0,0-.13-.13H76.055a.637.637,0,0,0-.634.634v3.307a.128.128,0,0,0,.091.124,3.536,3.536,0,1,1-2.133,0,.128.128,0,0,0,.091-.124V75.7a2.589,2.589,0,0,1,2.585-2.585H93.139a.13.13,0,0,0,.13-.13V69.822a.13.13,0,0,0-.13-.13H84.912a1.231,1.231,0,0,1-1.227-1.227V58.179a7.9,7.9,0,0,1,.781-3.43.129.129,0,0,1,.14-.072,4.832,4.832,0,0,1,2.234.909,2.682,2.682,0,0,1,.965,1.962s0,.007,0,.01v6.675a.973.973,0,0,0,1.058.972h5.179c1.771,0,3.133.536,2.988,2.463a.13.13,0,0,0,.13.14h5.683a.128.128,0,0,0,.123-.088l3.959-11.568a.13.13,0,0,0-.123-.172H98a.128.128,0,0,0-.123.089l-2.392,7.1a.128.128,0,0,1-.123.089H89.886a.13.13,0,0,1-.13-.13V57.55h0c0-.019,0-.038,0-.057a4.838,4.838,0,0,0-3.873-4.516.13.13,0,0,1-.059-.213A7.958,7.958,0,0,1,91.66,50.2h5.371a7.977,7.977,0,0,1,6.806,3.829.127.127,0,0,0,.111.062h4.386a.948.948,0,0,1,.926,1.236L104.58,69l0,.005a.972.972,0,0,1-.938.683h-8.29a.13.13,0,0,0-.13.13v3.167a.13.13,0,0,0,.13.13h17.085A2.589,2.589,0,0,1,115.02,75.7v3.307a.128.128,0,0,0,.091.124,3.536,3.536,0,1,1-2.133,0,.128.128,0,0,0,.091-.124ZM91.142,40.518a4.531,4.531,0,1,0,6.407,0A4.531,4.531,0,0,0,91.142,40.518Zm-17.2-7.093,2.276,4.467a.714.714,0,0,1-.018.682l-.005.01-.888,1.922,0,0c-.286.69-.509,1.349-.752,2.044A.712.712,0,0,1,74.1,43h0l-4.764,1.548a.128.128,0,0,0-.09.124v7.36a.128.128,0,0,0,.09.124L74.1,53.7a.713.713,0,0,1,.463.473v0a28.749,28.749,0,0,0,1.659,4,.711.711,0,0,1-.008.63h0l-2.276,4.467a.128.128,0,0,0,.024.151l5.2,5.2a.128.128,0,0,0,.151.024l2.352-1.2a.128.128,0,0,0,.071-.125q-.008-.115-.008-.231V58.381a.125.125,0,0,0-.028-.081,16.007,16.007,0,1,1,28.13-6.315c-.036.153-.073.349-.113.57a.128.128,0,0,0,.061.135,2.82,2.82,0,0,1,1.228,3.3L107.16,67.639a.13.13,0,0,0,.126.171l.184,0a.125.125,0,0,1,.062.014l1.637.834a.128.128,0,0,0,.151-.024l5.2-5.2a.128.128,0,0,0,.024-.151l-2.276-4.466a.714.714,0,0,1,.018-.682l.005-.01.888-1.922,0,0c.286-.689.509-1.349.752-2.044a.712.712,0,0,1,.453-.444h0l4.764-1.548a.128.128,0,0,0,.09-.124V44.67a.128.128,0,0,0-.09-.124L114.39,43a.713.713,0,0,1-.463-.473v0a28.8,28.8,0,0,0-1.66-4,.711.711,0,0,1,.008-.63h0l2.276-4.467a.128.128,0,0,0-.024-.151l-5.2-5.2a.128.128,0,0,0-.151-.024L104.7,30.323a.714.714,0,0,1-.682-.018l-.01-.005-1.923-.888,0,0c-.689-.286-1.349-.509-2.043-.752A.712.712,0,0,1,99.6,28.2h0L98.048,23.44a.128.128,0,0,0-.124-.09h-7.36a.128.128,0,0,0-.124.09L88.893,28.2a.713.713,0,0,1-.473.463h0a28.721,28.721,0,0,0-4,1.66.711.711,0,0,1-.63-.008v0L79.32,28.047a.128.128,0,0,0-.151.024l-5.2,5.2a.129.129,0,0,0-.024.151Z" transform="translate(-69.245 -23.35)" fill="#fff" fill-rule="evenodd"/>
</svg>
