<svg xmlns="http://www.w3.org/2000/svg" xmlns:xlink="http://www.w3.org/1999/xlink" width="50" height="50" viewBox="0 0 50 50">
  <defs>
    <clipPath id="clip-path">
      <path id="Path_7453" data-name="Path 7453" d="M0,0H50V50H0Z" fill="none"/>
    </clipPath>
  </defs>
  <g id="Group_5316" data-name="Group 5316" clip-path="url(#clip-path)">
    <path id="Path_7451" data-name="Path 7451" d="M21.75,37.333l-1.792-1.792A6.243,6.243,0,0,1,20,26.667l1.75-1.708a19.46,19.46,0,0,0-2.083-.125C14.1,24.833,3,27.625,3,33.167v4.167ZM19.667,20.667a8.333,8.333,0,1,0-8.333-8.333A8.331,8.331,0,0,0,19.667,20.667Z" transform="translate(3.25 4.333)" fill="#fff"/>
    <path id="Path_7452" data-name="Path 7452" d="M20.27,27.225a2.1,2.1,0,0,1-2.958,0L13,22.871a2.062,2.062,0,0,1,0-2.9l.021-.021a2.05,2.05,0,0,1,2.917,0l2.854,2.854,9.229-9.292a2.075,2.075,0,0,1,2.938,0l.021.021a2.062,2.062,0,0,1,0,2.9Z" transform="translate(13.439 13.983)" fill="#fff"/>
  </g>
</svg>
