<svg xmlns="http://www.w3.org/2000/svg" width="50" height="53.514" viewBox="0 0 50 53.514">
  <path id="Path_7454" data-name="Path 7454" d="M52.024,38.022a12.739,12.739,0,1,1,11.577-7.4,27.389,27.389,0,0,1-4.245.054,2.038,2.038,0,1,0,.049,1.758c1.114.052,2.172.063,3.157.018a12.735,12.735,0,0,1-10.538,5.572,25.334,25.334,0,0,1,4.945.485l-4.945,3.83-4.945-3.83a25.334,25.334,0,0,1,4.945-.485ZM68.017,28.5h-.885V22.051h1.224C66.137,9.543,52.055,5.66,43.015,11.272A16.017,16.017,0,0,0,35.8,22.051h.573a.548.548,0,0,1,.548.548v5.348a.549.549,0,0,1-.548.548H33.356a1.238,1.238,0,0,1-1.238-1.238V23.289a1.238,1.238,0,0,1,1.238-1.238h.65A17.77,17.77,0,0,1,42.09,9.782C52.161,3.529,67.9,7.949,70.141,22.051h.551a1.238,1.238,0,0,1,1.238,1.238v3.968A1.238,1.238,0,0,1,70.693,28.5h-.835a.876.876,0,0,1-.06.319A5.161,5.161,0,0,1,66.446,31.8a13.024,13.024,0,0,1-3.336.613,13.161,13.161,0,0,0,1-1.862q.4-.058.774-.137A4.27,4.27,0,0,0,68.017,28.5ZM41.317,40.4q.016.036.036.071l5.1,9.1a.877.877,0,0,0,1.436.136l.6-.707L47.08,55.83a.877.877,0,0,0,.209.766l3.552,3.927H27.572a.548.548,0,0,1-.544-.618A25.241,25.241,0,0,1,41.317,40.4Zm.9,9.8a.722.722,0,0,0-.722-.722H36.527a.722.722,0,0,0-.722.722V51.84a.722.722,0,0,0,.722.722H41.5a.722.722,0,0,0,.722-.722ZM53.207,60.523,56.759,56.6a.877.877,0,0,0,.209-.766L55.559,49l.6.707a.877.877,0,0,0,1.436-.136l5.1-9.1q.02-.035.036-.071a25.24,25.24,0,0,1,14.288,19.5.548.548,0,0,1-.543.617H53.207ZM50.861,46.186l1.163-1.379,1.163,1.379,1.972,9.562-3.136,3.467-3.135-3.467Zm-1.48-.967-.011.013-2,2.374-4-7.123a24.187,24.187,0,0,1,2.4-.772l4.995,3.869Zm5.3.013-.011-.013-1.383-1.64,4.995-3.869a24.164,24.164,0,0,1,2.4.772l-4,7.123Z" transform="translate(-27.024 -7.009)" fill="#fff" fill-rule="evenodd"/>
</svg>
